{
	"patcher" : 	{
		"fileversion" : 1,
		"appversion" : 		{
			"major" : 8,
			"minor" : 0,
			"revision" : 3,
			"architecture" : "x64",
			"modernui" : 1
		}
,
		"classnamespace" : "box",
		"rect" : [ 42.0, 85.0, 1512.0, 929.0 ],
		"bglocked" : 0,
		"openinpresentation" : 0,
		"default_fontsize" : 12.0,
		"default_fontface" : 0,
		"default_fontname" : "Arial",
		"gridonopen" : 1,
		"gridsize" : [ 15.0, 15.0 ],
		"gridsnaponopen" : 1,
		"objectsnaponopen" : 1,
		"statusbarvisible" : 2,
		"toolbarvisible" : 1,
		"lefttoolbarpinned" : 0,
		"toptoolbarpinned" : 0,
		"righttoolbarpinned" : 0,
		"bottomtoolbarpinned" : 0,
		"toolbars_unpinned_last_save" : 0,
		"tallnewobj" : 0,
		"boxanimatetime" : 200,
		"enablehscroll" : 1,
		"enablevscroll" : 1,
		"devicewidth" : 0.0,
		"description" : "",
		"digest" : "",
		"tags" : "",
		"style" : "",
		"subpatcher_template" : "",
		"boxes" : [ 			{
				"box" : 				{
					"fontface" : 0,
					"fontname" : "Arial",
					"fontsize" : 12.0,
					"id" : "obj-11",
					"maxclass" : "number~",
					"mode" : 2,
					"numinlets" : 2,
					"numoutlets" : 2,
					"outlettype" : [ "signal", "float" ],
					"patching_rect" : [ 586.0, 419.0, 56.0, 22.0 ],
					"sig" : 0.0
				}

			}
, 			{
				"box" : 				{
					"fontface" : 0,
					"fontname" : "Arial",
					"fontsize" : 12.0,
					"id" : "obj-10",
					"maxclass" : "number~",
					"mode" : 2,
					"numinlets" : 2,
					"numoutlets" : 2,
					"outlettype" : [ "signal", "float" ],
					"patching_rect" : [ 282.0, 429.0, 56.0, 22.0 ],
					"sig" : 0.0
				}

			}
, 			{
				"box" : 				{
					"fontface" : 0,
					"fontname" : "Arial",
					"fontsize" : 12.0,
					"id" : "obj-9",
					"maxclass" : "number~",
					"mode" : 2,
					"numinlets" : 2,
					"numoutlets" : 2,
					"outlettype" : [ "signal", "float" ],
					"patching_rect" : [ 505.0, 419.0, 56.0, 22.0 ],
					"sig" : 0.0
				}

			}
, 			{
				"box" : 				{
					"fontface" : 0,
					"fontname" : "Arial",
					"fontsize" : 12.0,
					"id" : "obj-8",
					"maxclass" : "number~",
					"mode" : 2,
					"numinlets" : 2,
					"numoutlets" : 2,
					"outlettype" : [ "signal", "float" ],
					"patching_rect" : [ 430.0, 419.0, 56.0, 22.0 ],
					"sig" : 0.0
				}

			}
, 			{
				"box" : 				{
					"fontface" : 0,
					"fontname" : "Arial",
					"fontsize" : 12.0,
					"id" : "obj-7",
					"maxclass" : "number~",
					"mode" : 2,
					"numinlets" : 2,
					"numoutlets" : 2,
					"outlettype" : [ "signal", "float" ],
					"patching_rect" : [ 353.0, 419.0, 56.0, 22.0 ],
					"sig" : 0.0
				}

			}
, 			{
				"box" : 				{
					"comment" : "(Signal) Audio In",
					"id" : "obj-5",
					"index" : 0,
					"maxclass" : "inlet",
					"numinlets" : 0,
					"numoutlets" : 1,
					"outlettype" : [ "" ],
					"patching_rect" : [ 289.0, 159.433609008789063, 30.0, 30.0 ]
				}

			}
, 			{
				"box" : 				{
					"comment" : "(Signal) Filtered Audio",
					"id" : "obj-3",
					"index" : 0,
					"maxclass" : "outlet",
					"numinlets" : 1,
					"numoutlets" : 0,
					"patching_rect" : [ 289.0, 363.0, 30.0, 30.0 ]
				}

			}
, 			{
				"box" : 				{
					"comment" : "(List) Coeffs",
					"id" : "obj-2",
					"index" : 0,
					"maxclass" : "outlet",
					"numinlets" : 1,
					"numoutlets" : 0,
					"patching_rect" : [ 690.0, 363.0, 30.0, 30.0 ]
				}

			}
, 			{
				"box" : 				{
					"id" : "obj-133",
					"maxclass" : "newobj",
					"numinlets" : 5,
					"numoutlets" : 1,
					"outlettype" : [ "" ],
					"patching_rect" : [ 690.0, 324.43359375, 331.0, 22.0 ],
					"text" : "pak f f f f f"
				}

			}
, 			{
				"box" : 				{
					"id" : "obj-132",
					"maxclass" : "newobj",
					"numinlets" : 1,
					"numoutlets" : 1,
					"outlettype" : [ "bang" ],
					"patching_rect" : [ 690.0, 196.933609008789063, 22.0, 22.0 ],
					"text" : "t b"
				}

			}
, 			{
				"box" : 				{
					"id" : "obj-131",
					"maxclass" : "newobj",
					"numinlets" : 2,
					"numoutlets" : 1,
					"outlettype" : [ "float" ],
					"patching_rect" : [ 1002.0, 285.43359375, 64.0, 22.0 ],
					"text" : "snapshot~"
				}

			}
, 			{
				"box" : 				{
					"id" : "obj-130",
					"maxclass" : "newobj",
					"numinlets" : 2,
					"numoutlets" : 1,
					"outlettype" : [ "float" ],
					"patching_rect" : [ 924.0, 285.43359375, 64.0, 22.0 ],
					"text" : "snapshot~"
				}

			}
, 			{
				"box" : 				{
					"id" : "obj-129",
					"maxclass" : "newobj",
					"numinlets" : 2,
					"numoutlets" : 1,
					"outlettype" : [ "float" ],
					"patching_rect" : [ 846.0, 285.43359375, 64.0, 22.0 ],
					"text" : "snapshot~"
				}

			}
, 			{
				"box" : 				{
					"id" : "obj-128",
					"maxclass" : "newobj",
					"numinlets" : 2,
					"numoutlets" : 1,
					"outlettype" : [ "float" ],
					"patching_rect" : [ 768.0, 285.43359375, 64.0, 22.0 ],
					"text" : "snapshot~"
				}

			}
, 			{
				"box" : 				{
					"id" : "obj-127",
					"maxclass" : "newobj",
					"numinlets" : 2,
					"numoutlets" : 1,
					"outlettype" : [ "float" ],
					"patching_rect" : [ 690.0, 285.43359375, 64.0, 22.0 ],
					"text" : "snapshot~"
				}

			}
, 			{
				"box" : 				{
					"comment" : "(Float) Q",
					"id" : "obj-103",
					"index" : 0,
					"maxclass" : "inlet",
					"numinlets" : 0,
					"numoutlets" : 1,
					"outlettype" : [ "" ],
					"patching_rect" : [ 489.5, 159.433609008789063, 30.0, 30.0 ]
				}

			}
, 			{
				"box" : 				{
					"comment" : "(Float) Gain",
					"id" : "obj-102",
					"index" : 0,
					"maxclass" : "inlet",
					"numinlets" : 0,
					"numoutlets" : 1,
					"outlettype" : [ "" ],
					"patching_rect" : [ 409.0999755859375, 159.433609008789063, 30.0, 30.0 ]
				}

			}
, 			{
				"box" : 				{
					"comment" : "(Float) Frequency",
					"id" : "obj-101",
					"index" : 0,
					"maxclass" : "inlet",
					"numinlets" : 0,
					"numoutlets" : 1,
					"outlettype" : [ "" ],
					"patching_rect" : [ 328.70001220703125, 159.433609008789063, 30.0, 30.0 ]
				}

			}
, 			{
				"box" : 				{
					"id" : "obj-14",
					"maxclass" : "newobj",
					"numinlets" : 3,
					"numoutlets" : 5,
					"outlettype" : [ "signal", "signal", "signal", "signal", "signal" ],
					"patching_rect" : [ 328.70001220703125, 239.433609008789063, 177.79998779296875, 22.0 ],
					"text" : "filtercoeff~ peaknotch"
				}

			}
, 			{
				"box" : 				{
					"id" : "obj-4",
					"maxclass" : "newobj",
					"numinlets" : 6,
					"numoutlets" : 1,
					"outlettype" : [ "signal" ],
					"patching_rect" : [ 289.0, 285.43359375, 217.5, 22.0 ],
					"text" : "biquad~"
				}

			}
 ],
		"lines" : [ 			{
				"patchline" : 				{
					"destination" : [ "obj-132", 0 ],
					"midpoints" : [ 338.20001220703125, 201.0, 675.0, 201.0, 675.0, 192.0, 699.5, 192.0 ],
					"order" : 0,
					"source" : [ "obj-101", 0 ]
				}

			}
, 			{
				"patchline" : 				{
					"destination" : [ "obj-14", 0 ],
					"midpoints" : [ 338.20001220703125, 192.0, 338.20001220703125, 192.0 ],
					"order" : 1,
					"source" : [ "obj-101", 0 ]
				}

			}
, 			{
				"patchline" : 				{
					"destination" : [ "obj-132", 0 ],
					"midpoints" : [ 418.5999755859375, 201.0, 675.0, 201.0, 675.0, 192.0, 699.5, 192.0 ],
					"order" : 0,
					"source" : [ "obj-102", 0 ]
				}

			}
, 			{
				"patchline" : 				{
					"destination" : [ "obj-14", 1 ],
					"midpoints" : [ 418.5999755859375, 192.0, 417.600006103515625, 192.0 ],
					"order" : 1,
					"source" : [ "obj-102", 0 ]
				}

			}
, 			{
				"patchline" : 				{
					"destination" : [ "obj-132", 0 ],
					"midpoints" : [ 499.0, 201.0, 675.0, 201.0, 675.0, 192.0, 699.5, 192.0 ],
					"order" : 0,
					"source" : [ "obj-103", 0 ]
				}

			}
, 			{
				"patchline" : 				{
					"destination" : [ "obj-14", 2 ],
					"midpoints" : [ 499.0, 234.0, 497.0, 234.0 ],
					"order" : 1,
					"source" : [ "obj-103", 0 ]
				}

			}
, 			{
				"patchline" : 				{
					"destination" : [ "obj-133", 0 ],
					"midpoints" : [ 699.5, 309.0, 699.5, 309.0 ],
					"source" : [ "obj-127", 0 ]
				}

			}
, 			{
				"patchline" : 				{
					"destination" : [ "obj-133", 1 ],
					"midpoints" : [ 777.5, 309.0, 777.5, 309.0 ],
					"source" : [ "obj-128", 0 ]
				}

			}
, 			{
				"patchline" : 				{
					"destination" : [ "obj-133", 2 ],
					"midpoints" : [ 855.5, 309.0, 855.5, 309.0 ],
					"source" : [ "obj-129", 0 ]
				}

			}
, 			{
				"patchline" : 				{
					"destination" : [ "obj-133", 3 ],
					"midpoints" : [ 933.5, 309.0, 933.5, 309.0 ],
					"source" : [ "obj-130", 0 ]
				}

			}
, 			{
				"patchline" : 				{
					"destination" : [ "obj-133", 4 ],
					"midpoints" : [ 1011.5, 309.0, 1011.5, 309.0 ],
					"source" : [ "obj-131", 0 ]
				}

			}
, 			{
				"patchline" : 				{
					"destination" : [ "obj-127", 0 ],
					"midpoints" : [ 699.5, 219.0, 699.5, 219.0 ],
					"order" : 4,
					"source" : [ "obj-132", 0 ]
				}

			}
, 			{
				"patchline" : 				{
					"destination" : [ "obj-128", 0 ],
					"midpoints" : [ 699.5, 270.0, 777.5, 270.0 ],
					"order" : 3,
					"source" : [ "obj-132", 0 ]
				}

			}
, 			{
				"patchline" : 				{
					"destination" : [ "obj-129", 0 ],
					"midpoints" : [ 699.5, 270.0, 855.5, 270.0 ],
					"order" : 2,
					"source" : [ "obj-132", 0 ]
				}

			}
, 			{
				"patchline" : 				{
					"destination" : [ "obj-130", 0 ],
					"midpoints" : [ 699.5, 270.0, 933.5, 270.0 ],
					"order" : 1,
					"source" : [ "obj-132", 0 ]
				}

			}
, 			{
				"patchline" : 				{
					"destination" : [ "obj-131", 0 ],
					"midpoints" : [ 699.5, 270.0, 1011.5, 270.0 ],
					"order" : 0,
					"source" : [ "obj-132", 0 ]
				}

			}
, 			{
				"patchline" : 				{
					"destination" : [ "obj-2", 0 ],
					"midpoints" : [ 699.5, 348.0, 699.5, 348.0 ],
					"source" : [ "obj-133", 0 ]
				}

			}
, 			{
				"patchline" : 				{
					"destination" : [ "obj-10", 0 ],
					"order" : 2,
					"source" : [ "obj-14", 0 ]
				}

			}
, 			{
				"patchline" : 				{
					"destination" : [ "obj-11", 0 ],
					"order" : 1,
					"source" : [ "obj-14", 4 ]
				}

			}
, 			{
				"patchline" : 				{
					"destination" : [ "obj-127", 0 ],
					"midpoints" : [ 338.20001220703125, 264.0, 315.0, 264.0, 315.0, 225.0, 675.0, 225.0, 675.0, 270.0, 699.5, 270.0 ],
					"order" : 0,
					"source" : [ "obj-14", 0 ]
				}

			}
, 			{
				"patchline" : 				{
					"destination" : [ "obj-128", 0 ],
					"midpoints" : [ 377.900009155273438, 264.0, 585.0, 264.0, 585.0, 225.0, 675.0, 225.0, 675.0, 255.0, 777.5, 255.0 ],
					"order" : 0,
					"source" : [ "obj-14", 1 ]
				}

			}
, 			{
				"patchline" : 				{
					"destination" : [ "obj-129", 0 ],
					"midpoints" : [ 417.600006103515625, 264.0, 585.0, 264.0, 585.0, 225.0, 675.0, 225.0, 675.0, 255.0, 855.5, 255.0 ],
					"order" : 0,
					"source" : [ "obj-14", 2 ]
				}

			}
, 			{
				"patchline" : 				{
					"destination" : [ "obj-130", 0 ],
					"midpoints" : [ 457.300003051757813, 264.0, 585.0, 264.0, 585.0, 225.0, 675.0, 225.0, 675.0, 255.0, 933.5, 255.0 ],
					"order" : 0,
					"source" : [ "obj-14", 3 ]
				}

			}
, 			{
				"patchline" : 				{
					"destination" : [ "obj-131", 0 ],
					"midpoints" : [ 497.0, 264.0, 585.0, 264.0, 585.0, 225.0, 675.0, 225.0, 675.0, 255.0, 1011.5, 255.0 ],
					"order" : 0,
					"source" : [ "obj-14", 4 ]
				}

			}
, 			{
				"patchline" : 				{
					"destination" : [ "obj-4", 5 ],
					"midpoints" : [ 497.0, 264.0, 497.0, 264.0 ],
					"order" : 2,
					"source" : [ "obj-14", 4 ]
				}

			}
, 			{
				"patchline" : 				{
					"destination" : [ "obj-4", 4 ],
					"midpoints" : [ 457.300003051757813, 264.0, 457.300000000000011, 264.0 ],
					"order" : 2,
					"source" : [ "obj-14", 3 ]
				}

			}
, 			{
				"patchline" : 				{
					"destination" : [ "obj-4", 3 ],
					"midpoints" : [ 417.600006103515625, 264.0, 417.600000000000023, 264.0 ],
					"order" : 2,
					"source" : [ "obj-14", 2 ]
				}

			}
, 			{
				"patchline" : 				{
					"destination" : [ "obj-4", 2 ],
					"midpoints" : [ 377.900009155273438, 264.0, 377.899999999999977, 264.0 ],
					"order" : 1,
					"source" : [ "obj-14", 1 ]
				}

			}
, 			{
				"patchline" : 				{
					"destination" : [ "obj-4", 1 ],
					"midpoints" : [ 338.20001220703125, 264.0, 338.199999999999989, 264.0 ],
					"order" : 1,
					"source" : [ "obj-14", 0 ]
				}

			}
, 			{
				"patchline" : 				{
					"destination" : [ "obj-7", 0 ],
					"order" : 2,
					"source" : [ "obj-14", 1 ]
				}

			}
, 			{
				"patchline" : 				{
					"destination" : [ "obj-8", 0 ],
					"order" : 1,
					"source" : [ "obj-14", 2 ]
				}

			}
, 			{
				"patchline" : 				{
					"destination" : [ "obj-9", 0 ],
					"order" : 1,
					"source" : [ "obj-14", 3 ]
				}

			}
, 			{
				"patchline" : 				{
					"destination" : [ "obj-3", 0 ],
					"midpoints" : [ 298.5, 309.0, 298.5, 309.0 ],
					"source" : [ "obj-4", 0 ]
				}

			}
, 			{
				"patchline" : 				{
					"destination" : [ "obj-4", 0 ],
					"midpoints" : [ 298.5, 192.0, 298.5, 192.0 ],
					"source" : [ "obj-5", 0 ]
				}

			}
 ],
		"dependency_cache" : [  ],
		"autosave" : 0
	}

}
